:SAMPLES-PER-SECOND 30
:FULLY-SPECIFIED
:DEGREES
384
root  29.3946 32.3984 -38.5487 -178.102 -43.0828 -172.404
RightUpLeg  -32.5157 10.4758 0.0151482
RightLeg  45.5743 -8.16397 -7.2883
RightFoot  -3.60877 0.0082499 0.63955
RightToes  -27.4072 -0.12648 -0.233547
Spine  8.79947 -5.5472 -0.4152
Spine1  17.0611 -11.5846 -0.736309
HEad  20.0486 33.2985 -9.36332
LeftShoulder1  0 -2.42657e-020 -4.95415e-022
LeftArm  -31.9954 0.321371 -80.7281
LeftForeArm  61.4097 -13.0503 -2.29196
LeftHand  0.800278 -12.6242 -7.59943
RightShoulder  0 2.42657e-020 1.07489e-018
RightArm  -44.3055 -42.5097 79.502
RightForeArm  -13.6414 74.0093 37.8474
RightHand  4.15074 14.6211 31.9299
LeftUpLeg  -13.7172 5.80285 -7.96715
LeftLeg  36.2332 8.32148 5.27362
LeftFoot  -17.114 -0.426714 -2.83534
LeftToes  5.97161 2.01279e-006 2.21547e-008
385
root  27.603 32.8675 -39.4075 -177.089 -43.9394 -171.923
RightUpLeg  -32.248 9.6617 1.0591
RightLeg  29.1223 -5.96011 -2.83421
RightFoot  -2.96208 -0.00285385 0.267232
RightToes  -31.8487 -0.156856 -0.264607
Spine  8.27108 -5.76313 0.212823
Spine1  15.8662 -12.3188 0.717409
HEad  20.0709 33.5894 -9.71585
LeftShoulder1  0 -2.42657e-020 -4.95415e-022
LeftArm  -30.428 -0.883696 -81.6786
LeftForeArm  61.3784 -13.5828 -2.39083
LeftHand  0.766221 -12.6092 -7.3008
RightShoulder  0 2.42657e-020 1.07489e-018
RightArm  -45.6596 -39.4182 80.032
RightForeArm  -14.5488 72.9991 35.1109
RightHand  4.15945 15.1176 30.9925
LeftUpLeg  -10.745 6.1419 -8.14549
LeftLeg  33.2068 7.57453 4.26528
LeftFoot  -12.2069 -0.191005 -1.78613
LeftToes  2.06885 2.01279e-006 2.21547e-008
386
root  25.7388 33.0763 -40.3257 -176.585 -44.7237 -171.481
RightUpLeg  -32.0063 7.93923 2.61966
RightLeg  18.8307 0.129955 0.0343736
RightFoot  -2.17248 -0.00897306 -0.0957228
RightToes  -43.1365 -0.244011 -0.332145
Spine  7.72624 -5.67014 0.821886
Spine1  14.6601 -12.3 1.97809
HEad  21.4874 32.9144 -8.77373
LeftShoulder1  0 -2.42657e-020 -4.95415e-022
LeftArm  -27.9157 -1.42047 -82.741
LeftForeArm  61.1675 -14.1404 -2.49528
LeftHand  0.814969 -12.6738 -7.70278
RightShoulder  0 2.42657e-020 1.07489e-018
RightArm  -46.8125 -35.6995 79.3443
RightForeArm  -11.954 72.9971 35.1374
RightHand  4.31005 16.0073 30.3473
LeftUpLeg  -9.20934 5.5808 -8.40982
LeftLeg  34.192 7.2449 4.24583
LeftFoot  -7.07031 -0.063093 -1.02126
LeftToes  -6.5034 2.01279e-006 2.21547e-008
387
root  23.8642 32.9754 -41.3468 -178.023 -44.6694 -170.634
RightUpLeg  -31.506 10.8071 3.85719
RightLeg  18.1497 2.17484 0.560455
RightFoot  -2.0098 -0.0100326 -0.194477
RightToes  -43.5113 -0.247123 -0.334086
Spine  7.59128 -5.17029 1.32401
Spine1  14.3039 -11.3026 2.77265
HEad  23.3757 32.0026 -7.58919
LeftShoulder1  0 -2.42657e-020 -4.95415e-022
LeftArm  -26.4022 -1.37899 -83.7202
LeftForeArm  60.5521 -14.9044 -2.64
LeftHand  0.860765 -12.8745 -7.9922
RightShoulder  0 2.42657e-020 1.07489e-018
RightArm  -47.1979 -30.2901 77.7007
RightForeArm  -6.21242 73.6667 36.9702
RightHand  4.39811 16.7539 29.6116
LeftUpLeg  -9.03231 5.88675 -8.08398
LeftLeg  40.8684 5.98354 4.51645
LeftFoot  -1.77637 -0.00424416 -0.273771
LeftToes  -14.937 2.01279e-006 2.21547e-008
388
root  21.9835 32.5718 -42.458 179.489 -44.2625 -169.592
RightUpLeg  -30.4004 15.342 5.09968
RightLeg  24.077 2.50816 0.928403
RightFoot  -1.7242 -0.00914893 -0.230537
RightToes  -37.8569 -0.201594 -0.302699
Spine  7.68549 -4.58179 1.74112
Spine1  14.5046 -9.89545 2.97863
HEad  25.216 31.3855 -6.26406
LeftShoulder1  0 -2.42657e-020 -4.95415e-022
LeftArm  -26.2827 -0.368005 -84.3248
LeftForeArm  57.7353 -15.8573 -2.82641
LeftHand  0.856993 -12.7257 -8.04818
RightShoulder  0 2.42657e-020 1.07489e-018
RightArm  -45.3979 -23.4063 75.3721
RightForeArm  -0.311872 74.4327 39.3045
RightHand  4.36076 17.2609 28.5438
LeftUpLeg  -10.104 7.26645 -6.85337
LeftLeg  51.257 2.95332 3.21889
LeftFoot  3.97606 -0.00801463 0.230883
LeftToes  -19.4585 2.01279e-006 2.21547e-008
389
root  20.0895 31.8021 -43.5619 176.625 -44.3449 -169.071
RightUpLeg  -29.4737 19.1018 5.33463
RightLeg  32.5592 0.340874 0.176337
RightFoot  1.20463 0.00573523 -0.167898
RightToes  -41.5755 -0.23119 -0.323848
Spine  8.01684 -4.01271 2.0263
Spine1  15.2031 -8.41114 2.70962
HEad  26.421 30.5895 -5.76432
LeftShoulder1  0 -2.42657e-020 -4.95415e-022
LeftArm  -26.3693 0.749979 -84.6817
LeftForeArm  55.5408 -16.8682 -3.02419
LeftHand  0.842707 -12.475 -8.07314
RightShoulder  0 2.42657e-020 1.07489e-018
RightArm  -42.3646 -15.8332 73.1788
RightForeArm  9.63003 76.101 45.5885
RightHand  4.0911 17.6332 26.3146
LeftUpLeg  -11.7367 8.63766 -5.19826
LeftLeg  63.2717 -0.420435 -0.728201
LeftFoot  11.683 0.0214855 -0.210017
LeftToes  -28.5237 2.01279e-006 2.21547e-008
390
root  18.133 30.9044 -44.5925 173.418 -45.8216 -168.628
RightUpLeg  -28.8774 14.7013 6.73131
RightLeg  44.1102 1.94483 1.62523
RightFoot  -5.58915 -0.0372993 -0.386611
RightToes  -37.4941 -0.198781 -0.300534
Spine  8.61548 -3.48613 2.27562
Spine1  16.3981 -6.93103 2.20915
HEad  26.7841 29.8303 -5.63232
LeftShoulder1  0 -2.42657e-020 -4.95415e-022
LeftArm  -26.6217 1.28962 -85.2051
LeftForeArm  54.1522 -17.7293 -3.19328
LeftHand  0.726 -11.918 -7.32102
RightShoulder  0 2.42657e-020 1.07489e-018
RightArm  -39.6397 -8.0458 71.7322
RightForeArm  22.4674 77.8079 55.0334
RightHand  3.52991 17.3688 23.1895
LeftUpLeg  -13.853 8.6071 -3.1825
LeftLeg  74.9753 -1.90253 -5.62012
LeftFoot  14.387 0.177249 -1.40429
LeftToes  -38.3525 2.01279e-006 2.21547e-008
